<?xml version="1.0" encoding="UTF-8"?>
<!DOCTYPE svg PUBLIC "-//W3C//DTD SVG 1.0//EN" "http://www.w3.org/TR/2001/REC-SVG-20010904/DTD/svg10.dtd">
<svg xmlns="http://www.w3.org/2000/svg" xmlns:xlink="http://www.w3.org/1999/xlink" fill-opacity="1" color-rendering="auto" color-interpolation="auto" text-rendering="auto" stroke="black" stroke-linecap="square" width="900" stroke-miterlimit="10" shape-rendering="auto" stroke-opacity="1" fill="black" stroke-dasharray="none" font-weight="normal" stroke-width="1" viewBox="130 330 900 220" height="220" font-family="'Dialog'" font-style="normal" stroke-linejoin="miter" font-size="12px" stroke-dashoffset="0" image-rendering="auto">
  <!--Generated by the Batik Graphics2D SVG Generator-->
  <defs id="genericDefs" />
  <g>
    <defs id="defs1">
      <clipPath clipPathUnits="userSpaceOnUse" id="clipPath1">
        <path d="M0 0 L2147483647 0 L2147483647 2147483647 L0 2147483647 L0 0 Z" />
      </clipPath>
      <clipPath clipPathUnits="userSpaceOnUse" id="clipPath2">
        <path d="M0 0 L0 80 L140 80 L140 0 Z" />
      </clipPath>
      <clipPath clipPathUnits="userSpaceOnUse" id="clipPath3">
        <path d="M0 0 L0 180 L140 180 L140 0 Z" />
      </clipPath>
      <clipPath clipPathUnits="userSpaceOnUse" id="clipPath4">
        <path d="M0 0 L0 180 L440 180 L440 0 Z" />
      </clipPath>
      <clipPath clipPathUnits="userSpaceOnUse" id="clipPath5">
        <path d="M0 0 L0 30 L110 30 L110 0 Z" />
      </clipPath>
      <clipPath clipPathUnits="userSpaceOnUse" id="clipPath6">
        <path d="M0 0 L0 30 L60 30 L60 0 Z" />
      </clipPath>
      <clipPath clipPathUnits="userSpaceOnUse" id="clipPath7">
        <path d="M0 0 L0 40 L120 40 L120 0 Z" />
      </clipPath>
      <clipPath clipPathUnits="userSpaceOnUse" id="clipPath8">
        <path d="M0 0 L0 140 L270 140 L270 0 Z" />
      </clipPath>
      <clipPath clipPathUnits="userSpaceOnUse" id="clipPath9">
        <path d="M0 0 L0 30 L120 30 L120 0 Z" />
      </clipPath>
      <clipPath clipPathUnits="userSpaceOnUse" id="clipPath10">
        <path d="M0 0 L0 100 L120 100 L120 0 Z" />
      </clipPath>
      <clipPath clipPathUnits="userSpaceOnUse" id="clipPath11">
        <path d="M0 0 L0 40 L70 40 L70 0 Z" />
      </clipPath>
      <clipPath clipPathUnits="userSpaceOnUse" id="clipPath12">
        <path d="M0 0 L0 20 L50 20 L50 0 Z" />
      </clipPath>
      <clipPath clipPathUnits="userSpaceOnUse" id="clipPath13">
        <path d="M0 0 L0 50 L50 50 L50 0 Z" />
      </clipPath>
    </defs>
    <g fill="rgb(181,203,133)" transform="translate(150,450)" stroke="rgb(181,203,133)">
      <rect x="0.5" width="138.5" height="78.5" y="0.5" clip-path="url(#clipPath2)" stroke="none" />
      <rect x="0.5" y="0.5" clip-path="url(#clipPath2)" fill="none" width="138.5" height="78.5" stroke="black" />
    </g>
    <g font-family="sans-serif" font-size="14px" transform="translate(150,450)">
      <text x="55" xml:space="preserve" y="44.9844" clip-path="url(#clipPath2)" stroke="none">CTH</text>
    </g>
    <g fill="rgb(181,203,133)" transform="translate(150,350)" stroke="rgb(181,203,133)">
      <rect x="0.5" width="138.5" height="78.5" y="0.5" clip-path="url(#clipPath2)" stroke="none" />
      <rect x="0.5" y="0.5" clip-path="url(#clipPath2)" fill="none" width="138.5" height="78.5" stroke="black" />
    </g>
    <g font-family="sans-serif" font-size="14px" transform="translate(150,350)">
      <text x="55" xml:space="preserve" y="44.9844" clip-path="url(#clipPath2)" stroke="none">EXS</text>
    </g>
    <g fill="rgb(136,136,136)" transform="translate(870,350)" stroke="rgb(136,136,136)">
      <rect x="0.5" width="138.5" height="178.5" y="0.5" clip-path="url(#clipPath3)" stroke="none" />
      <rect x="0.5" y="0.5" clip-path="url(#clipPath3)" fill="none" width="138.5" height="178.5" stroke="black" />
    </g>
    <g font-family="sans-serif" font-size="14px" transform="translate(870,350)">
      <text x="56" xml:space="preserve" y="94.9844" clip-path="url(#clipPath3)" stroke="none">FCL</text>
    </g>
    <g fill="rgb(119,159,202)" transform="translate(360,350)" stroke="rgb(119,159,202)">
      <rect x="0.5" width="438.5" height="178.5" y="0.5" clip-path="url(#clipPath4)" stroke="none" />
      <rect x="0.5" y="0.5" clip-path="url(#clipPath4)" fill="none" width="438.5" height="178.5" stroke="black" />
    </g>
    <g font-family="sans-serif" font-size="14px" transform="translate(360,350)">
      <text x="205" xml:space="preserve" y="17.9688" clip-path="url(#clipPath4)" stroke="none">MAL</text>
    </g>
    <g transform="translate(280,490)">
      <path fill="none" d="M89.5 10.5 L10.5 10.5" clip-path="url(#clipPath5)" />
      <path fill="none" d="M78.7417 4 L90 10.5 L78.7417 17" clip-path="url(#clipPath5)" />
      <path fill="none" d="M22.2583 4 L11 10.5 L22.2583 17" clip-path="url(#clipPath5)" />
    </g>
    <g transform="translate(480,490)">
      <path fill="none" d="M39.5 10.5 L10.5 10.5" clip-path="url(#clipPath6)" />
      <path fill="white" d="M28.7417 4 L40 10.5 L28.7417 17 Z" clip-path="url(#clipPath6)" stroke="none" />
      <path fill="none" d="M28.7417 4 L40 10.5 L28.7417 17 Z" clip-path="url(#clipPath6)" />
    </g>
    <g fill="rgb(255,255,255)" fill-opacity="0.498" transform="translate(370,480)" stroke-opacity="0.498" stroke="rgb(255,255,255)">
      <rect x="0.5" width="118.5" height="38.5" y="0.5" clip-path="url(#clipPath7)" stroke="none" />
    </g>
    <g transform="translate(370,480)">
      <rect fill="none" x="0.5" width="118.5" height="38.5" y="0.5" clip-path="url(#clipPath7)" />
      <text x="20" font-size="14px" y="24.9844" clip-path="url(#clipPath7)" font-family="sans-serif" stroke="none" xml:space="preserve">CTH Vehicle</text>
    </g>
    <g transform="translate(480,450)">
      <path fill="none" d="M39.5 10.5 L10.5 10.5" clip-path="url(#clipPath6)" />
      <path fill="white" d="M28.7417 4 L40 10.5 L28.7417 17 Z" clip-path="url(#clipPath6)" stroke="none" />
      <path fill="none" d="M28.7417 4 L40 10.5 L28.7417 17 Z" clip-path="url(#clipPath6)" />
    </g>
    <g fill="rgb(255,255,255)" fill-opacity="0.498" transform="translate(370,430)" stroke-opacity="0.498" stroke="rgb(255,255,255)">
      <rect x="0.5" width="118.5" height="38.5" y="0.5" clip-path="url(#clipPath7)" stroke="none" />
    </g>
    <g transform="translate(370,430)">
      <rect fill="none" x="0.5" width="118.5" height="38.5" y="0.5" clip-path="url(#clipPath7)" />
      <text x="21" font-size="14px" y="24.9844" clip-path="url(#clipPath7)" font-family="sans-serif" stroke="none" xml:space="preserve">Test Vehicle</text>
    </g>
    <g transform="translate(280,390)">
      <path fill="none" d="M89.5 10.5 L10.5 10.5" clip-path="url(#clipPath5)" />
      <path fill="none" d="M78.7417 4 L90 10.5 L78.7417 17" clip-path="url(#clipPath5)" />
      <path fill="none" d="M22.2583 4 L11 10.5 L22.2583 17" clip-path="url(#clipPath5)" />
    </g>
    <g transform="translate(480,400)">
      <path fill="none" d="M39.5 10.5 L10.5 10.5" clip-path="url(#clipPath6)" />
      <path fill="white" d="M28.7417 4 L40 10.5 L28.7417 17 Z" clip-path="url(#clipPath6)" stroke="none" />
      <path fill="none" d="M28.7417 4 L40 10.5 L28.7417 17 Z" clip-path="url(#clipPath6)" />
    </g>
    <g fill="rgb(255,255,255)" fill-opacity="0.498" transform="translate(370,380)" stroke-opacity="0.498" stroke="rgb(255,255,255)">
      <rect x="0.5" width="118.5" height="38.5" y="0.5" clip-path="url(#clipPath7)" stroke="none" />
    </g>
    <g transform="translate(370,380)">
      <rect fill="none" x="0.5" width="118.5" height="38.5" y="0.5" clip-path="url(#clipPath7)" />
      <text x="21" font-size="14px" y="24.9844" clip-path="url(#clipPath7)" font-family="sans-serif" stroke="none" xml:space="preserve">EXS Vehicle</text>
    </g>
    <g fill="rgb(255,255,255)" fill-opacity="0.498" transform="translate(520,380)" stroke-opacity="0.498" stroke="rgb(255,255,255)">
      <rect x="0.5" width="268.5" height="138.5" y="0.5" clip-path="url(#clipPath8)" stroke="none" />
    </g>
    <g transform="translate(520,380)">
      <rect fill="none" x="0.5" width="268.5" height="138.5" y="0.5" clip-path="url(#clipPath8)" />
      <text x="76" font-size="14px" y="17.9688" clip-path="url(#clipPath8)" font-family="sans-serif" stroke="none" xml:space="preserve">MavlinkAbstraction</text>
    </g>
    <g transform="translate(770,430)">
      <path fill="none" d="M11.5 10.5 L100.5 10.5" clip-path="url(#clipPath9)" />
      <path fill="none" d="M22.2583 17 L11 10.5 L22.2583 4" clip-path="url(#clipPath9)" />
      <path fill="none" d="M88.7417 17 L100 10.5 L88.7417 4" clip-path="url(#clipPath9)" />
    </g>
    <g fill="rgb(255,255,255)" fill-opacity="0.498" transform="translate(530,410)" stroke-opacity="0.498" stroke="rgb(255,255,255)">
      <rect x="0.5" width="118.5" height="98.5" y="0.5" clip-path="url(#clipPath10)" stroke="none" />
    </g>
    <g transform="translate(530,410)">
      <rect fill="none" x="0.5" width="118.5" height="98.5" y="0.5" clip-path="url(#clipPath10)" />
      <text x="31" xml:space="preserve" y="54.0625" clip-path="url(#clipPath10)" font-family="sans-serif" stroke="none">C2Handler</text>
    </g>
    <g fill="rgb(255,255,255)" fill-opacity="0.498" transform="translate(660,410)" stroke-opacity="0.498" stroke="rgb(255,255,255)">
      <rect x="0.5" width="118.5" height="98.5" y="0.5" clip-path="url(#clipPath10)" stroke="none" />
    </g>
    <g transform="translate(660,410)">
      <rect fill="none" x="0.5" width="118.5" height="98.5" y="0.5" clip-path="url(#clipPath10)" />
      <text x="5" xml:space="preserve" y="54.0625" clip-path="url(#clipPath10)" font-family="sans-serif" stroke="none">MAVLinkConnection</text>
    </g>
    <g font-family="sans-serif" font-size="10px" transform="translate(290,460)">
      <text x="18" xml:space="preserve" y="17" clip-path="url(#clipPath11)" stroke="none">Shared</text>
      <text x="16" xml:space="preserve" y="29.2656" clip-path="url(#clipPath11)" stroke="none">Memory</text>
    </g>
    <g font-family="sans-serif" font-size="10px" transform="translate(300,380)">
      <text x="16" xml:space="preserve" y="13.1328" clip-path="url(#clipPath12)" stroke="none">File</text>
    </g>
    <g font-family="sans-serif" font-size="10px" transform="translate(810,390)">
      <text x="8" xml:space="preserve" y="15.8672" clip-path="url(#clipPath13)" stroke="none">UDP or</text>
      <text x="9" xml:space="preserve" y="28.1328" clip-path="url(#clipPath13)" stroke="none">TCP or</text>
      <text x="12" xml:space="preserve" y="40.3984" clip-path="url(#clipPath13)" stroke="none">Serial</text>
    </g>
  </g>
</svg>